<?xml version="1.0" encoding="UTF-8" standalone="no"?>
<!-- Created with Inkscape (http://www.inkscape.org/) -->
<svg
   xmlns:dc="http://purl.org/dc/elements/1.1/"
   xmlns:cc="http://creativecommons.org/ns#"
   xmlns:rdf="http://www.w3.org/1999/02/22-rdf-syntax-ns#"
   xmlns:svg="http://www.w3.org/2000/svg"
   xmlns="http://www.w3.org/2000/svg"
   xmlns:sodipodi="http://sodipodi.sourceforge.net/DTD/sodipodi-0.dtd"
   xmlns:inkscape="http://www.inkscape.org/namespaces/inkscape"
   width="256"
   height="256"
   id="svg8302"
   sodipodi:version="0.32"
   inkscape:version="0.46"
   version="1.0"
   sodipodi:docname="pictograms-nps-misc-scenic_viewpoint.svg"
   inkscape:output_extension="org.inkscape.output.svg.inkscape">
  <defs
     id="defs8304">
    <inkscape:perspective
       sodipodi:type="inkscape:persp3d"
       inkscape:vp_x="0 : 526.18109 : 1"
       inkscape:vp_y="0 : 1000 : 0"
       inkscape:vp_z="744.09448 : 526.18109 : 1"
       inkscape:persp3d-origin="372.04724 : 350.78739 : 1"
       id="perspective8310" />
  </defs>
  <sodipodi:namedview
     id="base"
     pagecolor="#ffffff"
     bordercolor="#666666"
     borderopacity="1.0"
     gridtolerance="10000"
     guidetolerance="10"
     objecttolerance="10"
     inkscape:pageopacity="0.0"
     inkscape:pageshadow="2"
     inkscape:zoom="0.7"
     inkscape:cx="61.634556"
     inkscape:cy="136.73676"
     inkscape:document-units="px"
     inkscape:current-layer="layer1"
     showgrid="false"
     inkscape:window-width="738"
     inkscape:window-height="674"
     inkscape:window-x="0"
     inkscape:window-y="198" />
  <metadata
     id="metadata8307">
    <rdf:RDF>
      <cc:Work
         rdf:about="">
        <dc:format>image/svg+xml</dc:format>
        <dc:type
           rdf:resource="http://purl.org/dc/dcmitype/StillImage" />
      </cc:Work>
    </rdf:RDF>
  </metadata>
  <g
     inkscape:label="Layer 1"
     inkscape:groupmode="layer"
     id="layer1">
    <g
       id="g2658"
       transform="matrix(25.900445,0,0,-25.900445,225.35977,256)">
      <path
         d="M 0,0 C 0.652,0 1.182,0.529 1.182,1.182 L 1.182,8.703 C 1.182,9.355 0.652,9.884 0,9.884 L -7.521,9.884 C -8.174,9.884 -8.701,9.355 -8.701,8.703 L -8.701,1.182 C -8.701,0.529 -8.174,0 -7.521,0 L 0,0 z"
         style="fill:#231f20;fill-opacity:1;fill-rule:nonzero;stroke:none"
         id="path2660" />
    </g>
    <g
       id="g2662"
       transform="matrix(25.900445,0,0,-25.900445,30.549681,5.1900374)">
      <path
         d="M 0,0 C -0.539,0 -0.979,-0.44 -0.979,-0.98 L -0.979,-8.502 C -0.979,-9.044 -0.539,-9.483 0,-9.483 L 7.521,-9.483 C 8.063,-9.483 8.504,-9.044 8.504,-8.502 L 8.504,-0.98 C 8.504,-0.44 8.063,0 7.521,0 L 0,0 z"
         style="fill:#ffffff;fill-opacity:1;fill-rule:nonzero;stroke:none"
         id="path2664" />
    </g>
    <g
       id="g2666"
       transform="matrix(25.900445,0,0,-25.900445,84.904563,127.96333)">
      <path
         d="M 0,0 C 0,-0.501 -0.407,-0.908 -0.909,-0.908 C -1.41,-0.908 -1.817,-0.501 -1.817,0 C -1.817,0.502 -1.41,0.909 -0.909,0.909 C -0.407,0.909 0,0.502 0,0"
         style="fill:#231f20;fill-opacity:1;fill-rule:nonzero;stroke:none"
         id="path2668" />
    </g>
    <g
       id="g2670"
       transform="matrix(25.900445,0,0,-25.900445,100.28383,120.8434)">
      <path
         d="M 0,0 L 0,-0.55 L 4.609,-0.89 L 4.609,0.34 L 0,0 z"
         style="fill:#231f20;fill-opacity:1;fill-rule:nonzero;stroke:none"
         id="path2672" />
    </g>
    <g
       id="g2674"
       transform="matrix(25.900445,0,0,-25.900445,74.712426,90.718487)">
      <path
         d="M 0,0 L 0.475,-0.275 L 2.355,2.296 L 1.291,2.912 L 0,0 z"
         style="fill:#231f20;fill-opacity:1;fill-rule:nonzero;stroke:none"
         id="path2676" />
    </g>
    <g
       id="g2678"
       transform="matrix(25.900445,0,0,-25.900445,91.558076,102.37927)">
      <path
         d="M 0,0 L 0.273,-0.476 L 3.688,1.106 L 3.072,2.172 L 0,0 z"
         style="fill:#231f20;fill-opacity:1;fill-rule:nonzero;stroke:none"
         id="path2680" />
    </g>
    <g
       id="g2682"
       transform="matrix(25.900445,0,0,-25.900445,74.712426,165.19532)">
      <path
         d="M 0,0 L 0.475,0.275 L 2.355,-2.297 L 1.291,-2.912 L 0,0 z"
         style="fill:#231f20;fill-opacity:1;fill-rule:nonzero;stroke:none"
         id="path2684" />
    </g>
    <g
       id="g2686"
       transform="matrix(25.900445,0,0,-25.900445,91.558076,153.53514)">
      <path
         d="M 0,0 L 0.273,0.476 L 3.688,-1.106 L 3.072,-2.172 L 0,0 z"
         style="fill:#231f20;fill-opacity:1;fill-rule:nonzero;stroke:none"
         id="path2688" />
    </g>
  </g>
</svg>
