/* XPM */
static char * scenic_xpm[] = {
"32 32 174 2",
"  	c None",
". 	c #403C3D",
"+ 	c #504D4E",
"@ 	c #555253",
"# 	c #555252",
"$ 	c #3F3B3C",
"% 	c #777575",
"& 	c #EDEDEC",
"* 	c #FFFFFF",
"= 	c #ECECEC",
"- 	c #777576",
"; 	c #FEFEFE",
"> 	c #FDFDFD",
", 	c #4A4748",
"' 	c #9A9898",
") 	c #F2F2F2",
"! 	c #EDECEC",
"~ 	c #413D3E",
"{ 	c #DFDEDE",
"] 	c #282425",
"^ 	c #201C1D",
"/ 	c #383435",
"( 	c #A4A3A3",
"_ 	c #7E7B7D",
": 	c #1F1B1C",
"< 	c #231F20",
"[ 	c #1E191A",
"} 	c #747273",
"| 	c #1C1819",
"1 	c #221E1F",
"2 	c #565354",
"3 	c #7B7A7A",
"4 	c #302C2D",
"5 	c #E9E9E9",
"6 	c #F4F3F4",
"7 	c #878586",
"8 	c #4C494A",
"9 	c #EEEEEE",
"0 	c #383536",
"a 	c #151012",
"b 	c #B5B4B4",
"c 	c #D8D8D8",
"d 	c #413E3F",
"e 	c #1E1A1B",
"f 	c #1B1718",
"g 	c #9C9A9A",
"h 	c #BAB9B9",
"i 	c #7E7B7C",
"j 	c #FBFBFB",
"k 	c #9F9D9E",
"l 	c #161314",
"m 	c #332F30",
"n 	c #EDEDED",
"o 	c #3C3839",
"p 	c #211D1E",
"q 	c #F6F6F5",
"r 	c #EAEAEA",
"s 	c #181415",
"t 	c #817F80",
"u 	c #F4F4F4",
"v 	c #B7B5B6",
"w 	c #171314",
"x 	c #211E1E",
"y 	c #DBDADA",
"z 	c #BBBABA",
"A 	c #232021",
"B 	c #353132",
"C 	c #737071",
"D 	c #BDBCBC",
"E 	c #B3B2B2",
"F 	c #605D5E",
"G 	c #2E292B",
"H 	c #A8A6A6",
"I 	c #ECEBEB",
"J 	c #F3F2F2",
"K 	c #FCFCFC",
"L 	c #DCDCDC",
"M 	c #3D3A3B",
"N 	c #9A9999",
"O 	c #F2F3F3",
"P 	c #5C595A",
"Q 	c #4B4748",
"R 	c #CBCACB",
"S 	c #E0E0E0",
"T 	c #0F0A0B",
"U 	c #504D4D",
"V 	c #C9C8C8",
"W 	c #F6F6F6",
"X 	c #F9F9F9",
"Y 	c #454142",
"Z 	c #161112",
"` 	c #E8E7E7",
" .	c #F6F5F5",
"..	c #E9E8E8",
"+.	c #E2E2E2",
"@.	c #DDDCDC",
"#.	c #D7D6D6",
"$.	c #D0D0D0",
"%.	c #BCBBBB",
"&.	c #A6A5A6",
"*.	c #918F8F",
"=.	c #7C797A",
"-.	c #666465",
";.	c #514E4F",
">.	c #3C3939",
",.	c #AAA9A9",
"'.	c #DDDCDD",
").	c #7A7879",
"!.	c #B9B8B8",
"~.	c #353133",
"{.	c #333030",
"].	c #2E2A2B",
"^.	c #231E20",
"/.	c #1F1A1B",
"(.	c #AEADAD",
"_.	c #353233",
":.	c #343031",
"<.	c #282526",
"[.	c #201B1D",
"}.	c #AEACAD",
"|.	c #D6D5D5",
"1.	c #F5F5F5",
"2.	c #D8D7D7",
"3.	c #D1D0D0",
"4.	c #BFBEBE",
"5.	c #AAA8A8",
"6.	c #959394",
"7.	c #807E7E",
"8.	c #6B6869",
"9.	c #575354",
"0.	c #ACABAB",
"a.	c #0E0A0B",
"b.	c #C5C4C5",
"c.	c #DEDEDE",
"d.	c #343032",
"e.	c #3C393A",
"f.	c #949293",
"g.	c #B8B7B7",
"h.	c #B0AEAF",
"i.	c #636061",
"j.	c #2A2527",
"k.	c #A2A1A1",
"l.	c #EAE9EA",
"m.	c #D7D7D7",
"n.	c #BEBDBD",
"o.	c #252122",
"p.	c #332F31",
"q.	c #6D6B6B",
"r.	c #F0F0F0",
"s.	c #221D1E",
"t.	c #3D393A",
"u.	c #161213",
"v.	c #7B7979",
"w.	c #F4F3F3",
"x.	c #BCBBBC",
"y.	c #FCFBFB",
"z.	c #A19F9F",
"A.	c #171313",
"B.	c #EEEDED",
"C.	c #EFEEEE",
"D.	c #393536",
"E.	c #151112",
"F.	c #B4B2B3",
"G.	c #DAD8D9",
"H.	c #423E3F",
"I.	c #9E9C9D",
"J.	c #7D7A7B",
"K.	c #2F2C2D",
"L.	c #E9E8E9",
"M.	c #888686",
"N.	c #4C4A4A",
"O.	c #F3F3F3",
"P.	c #7E7C7D",
"Q.	c #747172",
"    . + @ # # # # # # # # # # # # # # # # # # # # # # @ + $     ",
"  % & * * * * * * * * * * * * * * * * * * * * * * * * * * = -   ",
". & ; * * * * * * * * ; > , ' ) * * * * * * * * * * * * * ; ! ~ ",
"+ * * * * * * * * * * ; { ] ^ / ( > * * * * * * * * * * * * * + ",
"@ * * * * * * * * * ; * _ : < [ } * * * * * ; * * * * * * * * @ ",
"# * * * * * * * * * * ) | 1 ^ 2 * * * ; * > * * * * * * * * * # ",
"# * * * * * * * * * * 3 : < 4 5 ; ; * 6 7 8 * * * * * * * * * # ",
"# * * * * * * * * ; 9 0 < a b * ; * c d e f g * * * * * * * * # ",
"# * * * * * * * ; * h : ^ i * * j k l 1 < < m n * * * * * * * # ",
"# * * * * * * * ; * o p $ q * r , p < < : s t u * * * * * * * # ",
"# * * * * * * * * v w x y * z A 1 1 : B C u * * * * * * * * * # ",
"# * * * * * * * * D < E * F 1 1 f G H I * * ; * * * * * * * * # ",
"# * * * ; * * J K * * L 4 e x M N * * ; * * * * * * * * * * * # ",
"# * * * * O P M Q R * S T U V W * * * * * * * * * * * * ; * * # ",
"# * * * X Y ^ < 1 Z ` * y  ...+.@.#.$.%.&.*.=.-.;.>.1 ,.* * * # ",
"# * * * '.] < < < : ).* !.~.{.].] ^.e e /.: ^ ^ p p e (.* * * # ",
"# * * * '.] < < < : ).* !._.:.].<.< e e e : [.^ p p e }.* * * # ",
"# * * * X Y ^ < 1 Z ` * |.1.5 +.'.2.3.4.5.6.7.8.9.d ] 0.* * * # ",
"# * * * * O P M Q R * { a., b.1.* * * * * * * * * * * * ; * * # ",
"# * * * ; * * J K * * c.d.e p e.f.* * ; * * * * * * * * * * * # ",
"# * * * * * * * * g.^ h.* i.1 1 | j.k.l.* * ; * * * * * * * * # ",
"# * * * * * * * * !.w p m.* n.o.1 1 : p.q.r.* * * * * * * * * # ",
"# * * * * * * * ; * M s.t.1.* = 8 p < < ^ u.v.w.* * * * * * * # ",
"# * * * * * * * ; * x.: ^ v.* * y.z.A.1 < < :.B.* * * * * * * # ",
"# * * * * * * * * ; C.D.< E.F.* ; * G.H.e f I.* * * * * * * * # ",
"# * * * * * * * * * * J.: < K.L.; ; * u M.N.* * * * * * * * * # ",
"# * * * * * * * * * * O.| 1 ^ @ * * * ; * > * * * * * * * * * # ",
"@ * * * * * * * * * ; * P.: < [ Q.* * * * * ; * * * * * * * * @ ",
"+ * * * * * * * * * * ; { ] ^ / ( > * * * * * * * * * * * * * + ",
". & ; * * * * * * * * ; > , ' ) * * * * * * * * * * * * * ; ! ~ ",
"  % & * * * * * * * * * * * * * * * * * * * * * * * * * * = -   ",
"    . + @ # # # # # # # # # # # # # # # # # # # # # # @ + $     "};
